<svg xmlns="http://www.w3.org/2000/svg" id="Layer_1" viewBox="0 0 480 480"><defs><style>      .st0 {        display: none;      }      .st1 {        fill: #201600;      }    </style></defs><g class="st0"><path d="M9.15,332.66c37.54,57.66,94.96,96.75,161.7,110.07,66.75,13.32,134.8-.72,191.6-39.54,94.85-64.85,121.03-195.97,58.34-292.26-24.77-38.06-62.69-63.88-106.76-72.67-44.08-8.8-89,.48-126.51,26.08-63,43.06-80.38,130.1-38.74,194.05,16.62,25.52,42.05,42.82,71.62,48.73,29.56,5.9,59.68-.31,84.82-17.5,42.58-29.12,54.33-87.95,26.19-131.17-11.39-17.49-28.83-29.36-49.1-33.4h-.01c-20.28-4.04-40.92.21-58.14,11.99-29.53,20.17-37.68,60.97-18.15,90.94,16.07,24.7,51.46,31.77,75.78,15.13,21.17-14.45,27.01-43.7,13.01-65.18-4.29-6.54-13.03-8.4-19.59-4.14-6.55,4.26-8.42,13.03-4.14,19.59,5.66,8.69,3.29,20.52-5.26,26.36-11.66,7.95-28.39,4.61-36.09-7.21-11.18-17.17-6.51-40.55,10.4-52.11,10.9-7.44,23.89-10.14,36.64-7.6h.01c12.74,2.55,23.74,10.04,30.93,21.09,19.79,30.43,11.52,71.86-18.44,92.36-18.79,12.85-41.27,17.5-63.3,13.1-22.05-4.4-41.02-17.33-53.43-36.41-33.3-51.15-19.41-120.77,30.99-155.22,31.16-21.29,68.44-29.01,104.98-21.71,36.54,7.29,68,28.73,88.6,60.36,54.35,83.5,31.66,197.2-50.59,253.43-50.47,34.5-110.86,46.99-170.08,35.16-59.22-11.82-110.19-46.54-143.53-97.77-4.27-6.54-13.06-8.4-19.59-4.13-6.55,4.26-8.42,13.03-4.14,19.59Z"></path></g><path class="st1" d="M187.67,185.85c-.08-.04.05-.49.4-1.34.36-.84.86-2.12,1.72-3.69,1.63-3.18,4.34-7.76,8.68-13.04.55-.66,1.11-1.33,1.68-2.02.61-.67,1.23-1.35,1.87-2.05.63-.71,1.31-1.4,2.02-2.1.71-.69,1.4-1.44,2.18-2.14.77-.7,1.55-1.42,2.35-2.15.82-.71,1.68-1.41,2.55-2.14,1.75-1.43,3.68-2.83,5.73-4.16,1.01-.69,2.11-1.28,3.19-1.94,1.1-.63,2.25-1.21,3.41-1.83,1.19-.55,2.38-1.14,3.62-1.67,1.25-.5,2.5-1.07,3.82-1.51,5.22-1.89,10.95-3.37,17.08-4.11,12.22-1.56,26.13-.47,39.78,4.81,3.39,1.34,6.76,2.94,10.05,4.81,3.3,1.86,6.46,4.08,9.49,6.55,6.08,4.95,11.37,11.18,15.58,18.27,8.46,14.17,12.42,31.83,10.73,49.65-.84,8.9-3.08,17.86-6.88,26.33-3.77,8.47-9.22,16.38-16.03,23.05-6.8,6.69-14.73,12-23.14,15.84-8.43,3.84-17.33,6.2-26.23,7.19-17.79,2-35.57-1.85-49.71-10.41-7.12-4.22-13.15-9.72-18.16-15.66-5.01-5.96-8.98-12.45-12.01-19.05-6.07-13.24-8.45-26.88-8.23-39.19.22-12.33,3.01-23.39,7.27-32.21,2.02-4.47,4.59-8.27,7.03-11.66,2.59-3.29,5.15-6.14,7.71-8.42.64-.57,1.27-1.12,1.87-1.66.31-.26.6-.54.9-.78.31-.23.62-.47.93-.69,1.22-.9,2.34-1.77,3.42-2.52,1.12-.69,2.15-1.33,3.09-1.91.47-.29.92-.57,1.35-.82.45-.23.87-.45,1.27-.66,3.25-1.59,5.14-1.93,5.18-1.79.08.21-1.67.88-4.66,2.72-.37.24-.76.49-1.17.75-.4.28-.82.59-1.26.91-.88.63-1.84,1.32-2.89,2.07-1.01.8-2.05,1.71-3.19,2.64-.28.24-.57.48-.86.72-.28.25-.55.53-.83.8-.56.55-1.14,1.11-1.73,1.69-2.37,2.32-4.73,5.17-7.1,8.42-2.22,3.35-4.56,7.06-6.37,11.4-3.83,8.55-6.24,19.19-6.22,31,.02,11.78,2.52,24.79,8.47,37.31,2.97,6.24,6.81,12.33,11.58,17.89,4.78,5.54,10.46,10.62,17.12,14.49,13.23,7.87,29.92,11.39,46.63,9.44,8.35-.96,16.72-3.21,24.61-6.83,7.88-3.63,15.28-8.6,21.62-14.83,6.34-6.22,11.4-13.54,14.94-21.44,3.56-7.89,5.69-16.29,6.52-24.66,1.66-16.75-1.98-33.38-9.77-46.68-3.88-6.66-8.75-12.51-14.35-17.16-2.8-2.33-5.73-4.44-8.8-6.22-3.06-1.79-6.21-3.33-9.39-4.64-12.81-5.16-26.04-6.43-37.73-5.18-5.87.59-11.36,1.88-16.39,3.57-1.27.39-2.47.91-3.68,1.35-1.2.48-2.35,1.01-3.5,1.51-1.12.56-2.23,1.08-3.3,1.66-1.05.6-2.12,1.14-3.1,1.77-4,2.42-7.46,5.13-10.51,7.81-.78.65-1.48,1.35-2.2,2-.72.65-1.41,1.3-2.05,1.97-.65.66-1.29,1.3-1.91,1.92-.59.65-1.17,1.28-1.73,1.9-4.48,4.95-7.42,9.26-9.32,12.23-1,1.46-1.64,2.65-2.16,3.4-.5.76-.8,1.14-.88,1.1Z"></path></svg>