<svg xmlns="http://www.w3.org/2000/svg" id="Layer_1" viewBox="0 0 784.43 784.43"><defs><style>      .st0 {        display: none;      }      .st1 {        fill: #111517;      }    </style></defs><g class="st0"><path d="M72.96,573.28c37.54,57.66,94.96,96.75,161.7,110.07,66.75,13.32,134.8-.72,191.6-39.54,94.85-64.85,121.03-195.97,58.34-292.26-24.77-38.06-62.69-63.88-106.76-72.67-44.08-8.8-89,.48-126.51,26.08-63,43.06-80.38,130.1-38.74,194.05,16.62,25.52,42.05,42.82,71.62,48.73,29.56,5.9,59.68-.31,84.82-17.5,42.58-29.12,54.33-87.95,26.19-131.17-11.39-17.49-28.83-29.36-49.1-33.4h-.01c-20.28-4.04-40.92.21-58.14,11.99-29.53,20.17-37.68,60.97-18.15,90.94,16.07,24.7,51.46,31.77,75.78,15.13,21.17-14.45,27.01-43.7,13.01-65.18-4.29-6.54-13.03-8.4-19.59-4.14-6.55,4.26-8.42,13.03-4.14,19.59,5.66,8.69,3.29,20.52-5.26,26.36-11.66,7.95-28.39,4.61-36.09-7.21-11.18-17.17-6.51-40.55,10.4-52.11,10.9-7.44,23.89-10.14,36.64-7.6h.01c12.74,2.55,23.74,10.04,30.93,21.09,19.79,30.43,11.52,71.86-18.44,92.36-18.79,12.85-41.27,17.5-63.3,13.1-22.05-4.4-41.02-17.33-53.43-36.41-33.3-51.15-19.41-120.77,30.99-155.22,31.16-21.29,68.44-29.01,104.98-21.71,36.54,7.29,68,28.73,88.6,60.36,54.35,83.5,31.66,197.2-50.59,253.43-50.47,34.5-110.86,46.99-170.08,35.16-59.22-11.82-110.19-46.54-143.53-97.77-4.27-6.54-13.06-8.4-19.59-4.13-6.55,4.26-8.42,13.03-4.14,19.59h-.02Z"></path></g><path class="st1" d="M264.25,251.23c-.15.83-.28,1.5-.37,2.2,1.35-.18,2.84-.26,4.06-.71.43-.16.29-1.27.38-1.97-1.38.15-2.73.33-4.07.48h0ZM248.13,298.75c-.09.67-.64,1.73-.26,1.98,1.03.7,2.43,1.03,3.69,1.52.09-.7.64-1.76.26-1.98-1.03-.7-2.43-1.03-3.69-1.52h0ZM122.3,332.52c.86.07,2.25.5,2.54.2.89-.8,1.32-1.9,1.94-2.88-.86-.07-2.21-.5-2.54-.2-.89.8-1.32,1.9-1.94,2.88h0ZM61.73,335.6c.86.07,2.25.5,2.54.2.85-.81,1.32-1.9,1.94-2.88-.86-.07-2.21-.5-2.54-.2-.89.8-1.32,1.9-1.94,2.88h0ZM43.47,355.61c-.54.96-1.08,1.95-1.66,2.94.86.07,2.25.5,2.54.2.85-.81,1.32-1.9,1.94-2.88-.9-.07-1.75-.17-2.81-.29h0v.03ZM161.71,476.56c.15-.83.28-1.5.37-2.2-1.39.21-2.84.26-4.06.71-.43.16-.29,1.27-.38,1.97,1.38-.15,2.73-.33,4.07-.48h0ZM19.62,347.74c-.11.83-.24,1.5-.37,2.2,1.39-.21,2.84-.26,4.06-.71.43-.16.29-1.27.42-1.97-1.38.15-2.77.33-4.07.48h-.04ZM265.4,287.26c.24.73.76,2.39,1.3,4.01,1.61-.32,3.88-.27,4.69-1.08,1.14-1.17,1.21-2.97,1.74-4.48-1.61.32-3.23.68-7.69,1.59h0l-.04-.04ZM37.88,399.37c.93-.18,3.01-.6,5.13-1.01-.42-1.26-.35-3.03-1.43-3.67-1.5-.89-3.8-.95-5.73-1.36.42,1.26.87,2.52,2.03,6.04h0ZM244.05,234.6c3.52.93,5.11,1.37,6.71,1.79.03-3.13.02-6.23.02-9.37-1.58.39-4.11.45-4.58,1.25-1.21,1.97-1.55,4.3-2.15,6.36h0v-.03ZM124.54,410.8c4.9-.19,8.29.43,10.53-.55,2.81-1.26,4.67-3.8,6.95-5.81-4.72-.25-9.45-.75-14.12-.44-.96.05-1.61,3.14-3.37,6.84h0v-.03ZM187.75,482.28c6.51,1.71,9.66,4.51,13.51,5.43,18.44,4.4,19.89,4.65,25.95,17.57,1.97,4.23,2.45,7.56,8.98,9.44,2.83.81,10.12,5.1-7.15,8.9-5.06,2.38-.48,5.33,4.13,8.31,1.27-1.22,2.59-2.44,3.79-3.71,3.27-3.55,1.13-7.44-2.56-8.28-4.66-1.05-10.23.19-15.39.75-.46.03-.5,2.25,10.07,2.96,23.44,5.67,30.39,12.62,34.18,24.2,2.99,9.12-2.7,4.54-6.64,5.65-6.39,1.79-6.47,8.44,1.7,11.41,7.58,2.77,9.91,3.53,3.18,8.62-1.84,1.41.59,5.67-5.56,4.66-6.39-1.06-13.04-1.13-19.43-2.19-7.12-1.21-1.78-3.15-.36-5.17.75-1.04.38-3.88-.26-4.06-21.76-5.57-28.79-9.65-40.94-22.41-2.76-2.9-10.87-4.48-10.94-6.78-.19-5.9-2.95-9.41-9.18-11.75-4.73-1.73-9.69-3.06-14.51-4.74-1.54-.54-3.43-1.31-4.15-2.4-10.23-15.74-31.76-23.39-44.04-37.65-11.74-13.63-32.46-20.83-42.24-35.95-3.61-5.62-7.87-11-12.05-16.37-1.03-1.31-2.79-3.03-4.35-3.12-13.09-.71-19.36-6.19-20.49-16.26-.29-2.54-3.38-4.82-5.04-7.32-4.01-6.07-17.2-10.15-6.59-19.59.61-.57-4.53-7.47-7.44-7.67-11.96-.85-9.86-6.53-8.72-12.39.99-5.06,2.01-10.12,2.51-15.21.31-3.04-1.98-7.98-.29-8.94,5.66-3.2,11.43-1.81,16.97,2.06,3.71,2.62,9.24,3.64,13.93,5.37,2-4.56,6.58-5.81,12.19-6.37,1.22-.13,3.37-4.29,2.66-4.93-6.22-5.57.19-7.51,4.35-9.99,63.12-37.78,126.2-75.52,189.47-113.13,4.07-2.39,9.36-4.27,14.34-4.78,4.31-.43,10.56-6.53,13.29.73.74,1.96-4.35,5.18-6.6,7.91-.93,1.12-1.48,2.47-2.21,3.67,1.55.12,3.43.66,4.68.21,9.18-3.25,20.61-3.08,24.61,2.69,3.4,4.99-3.43,12.4-10.66,16.89-1.44.89-1.11,3.5-1.6,5.3,3.01.37,7.32,1.87,8.77.89,8.32-5.84,18.07-9.3,28.81-10.25,4.81-.46,12.81-.96,13.48,4.75.44,3.62-2.16,8.68-5.62,11.19-8.89,6.4-19.05,11.77-28.72,17.53-2.24,1.34-4.55,2.58-6.64,4.03-.54.38-.81,1.81-.51,2,1.16.64,2.85,1.58,3.88,1.31,6.56-1.84,12.92-4.02,19.45-5.95,5.67-1.68,11.51-3.06,17.15-4.78,6.97-2.13,5.25,1.61,4.35,4.06-2.92,8.2-7.45,15.4-17.23,20.35-23.75,12.01-47.2,24.3-70.67,36.66-6.21,3.26-11.98,6.97-17.79,10.67-1.26.77-1.67,2.32-2.44,3.55,1.52.38,3.05,1.05,4.65,1.11,31.68,1.09,63.21,5.5,95.09,3.76,1.83-.11,3.71.39,5.55.54,29.28,2.03,58.55,4.19,87.86,6,14.43.89,28.91,1.07,43.36,1.47,14.46.37,28.61,5.95,43.44,1.51,1.51-.46,3.64.32,5.52.47,64.47,5.69,128.99,11.36,193.49,17.12,11.89,1.07,21.25,5.34,30.04,12.14,8.49,6.52,19.79,10.84,29.96,15.95,2.33,1.19,8.34-.89,6.26,3.95-1.31,3.06-4.04,8.24-5.98,8.22-8.41-.18-14.54.95-16.67,8.08,5.97-.82,11.94-1.86,17.95-2.33,2.92-.22,7.9-.05,8.57,1.13,1.35,2.3,1.83,6.58-.01,8.05-4.72,3.86-10.35,8.45-16.56,9.51-15.26,2.6-31.06,4.65-46.63,4.61-37.81-.03-75.64-1.8-113.45-2.08-39.71-.31-79.36-2.13-119.04-2.69-37.83-.51-75.46-4.79-113.46-3.28-20.81.84-41.84-2.67-62.81-2.88-31.32-.35-62.58-2.41-94.02-.9-17.09.84-34.46-1.31-51.69-1.93-4.81-.16-9.66.27-14.52.43,2.51,2.98,4.14,7.57,7.6,8.65,13.27,4.12,9.99,13.81,15.41,22-1.73.61-3.41.15-4.09.61-1.89,1.21-3.34,2.8-4.97,4.26,1,.6,2.65,1.89,2.92,1.72,2.38-1.46,4.5-3.13,6.14-6.59,1.55-2.11,4.59-7.36,9.3-3.24,6.8,5.9,13.03,12.31,18.57,18.99,3.82,4.63-3.45,5.54-9.16,8.16-1.67.45-.3.72,1.07.99.12-.93.32-1.82.48-2.74-1.4-.01-2.83-.13-4.22.05-.21.05-.24,1.21,2.67,1.7h0l.02-.13Z"></path></svg>