<svg xmlns="http://www.w3.org/2000/svg" id="Layer_1" viewBox="0 0 784.43 784.43"><defs><style>      .st0 {        display: none;      }      .st1 {        fill: #111517;      }    </style></defs><g class="st0"><path d="M72.96,573.28c37.54,57.66,94.96,96.75,161.7,110.07,66.75,13.32,134.8-.72,191.6-39.54,94.85-64.85,121.03-195.97,58.34-292.26-24.77-38.06-62.69-63.88-106.76-72.67-44.08-8.8-89,.48-126.51,26.08-63,43.06-80.38,130.1-38.74,194.05,16.62,25.52,42.05,42.82,71.62,48.73,29.56,5.9,59.68-.31,84.82-17.5,42.58-29.12,54.33-87.95,26.19-131.17-11.39-17.49-28.83-29.36-49.1-33.4h-.01c-20.28-4.04-40.92.21-58.14,11.99-29.53,20.17-37.68,60.97-18.15,90.94,16.07,24.7,51.46,31.77,75.78,15.13,21.17-14.45,27.01-43.7,13.01-65.18-4.29-6.54-13.03-8.4-19.59-4.14-6.55,4.26-8.42,13.03-4.14,19.59,5.66,8.69,3.29,20.52-5.26,26.36-11.66,7.95-28.39,4.61-36.09-7.21-11.18-17.17-6.51-40.55,10.4-52.11,10.9-7.44,23.89-10.14,36.64-7.6h.01c12.74,2.55,23.74,10.04,30.93,21.09,19.79,30.43,11.52,71.86-18.44,92.36-18.79,12.85-41.27,17.5-63.3,13.1-22.05-4.4-41.02-17.33-53.43-36.41-33.3-51.15-19.41-120.77,30.99-155.22,31.16-21.29,68.44-29.01,104.98-21.71,36.54,7.29,68,28.73,88.6,60.36,54.35,83.5,31.66,197.2-50.59,253.43-50.47,34.5-110.86,46.99-170.08,35.16-59.22-11.82-110.19-46.54-143.53-97.77-4.27-6.54-13.06-8.4-19.59-4.13-6.55,4.26-8.42,13.03-4.14,19.59h-.02Z"></path></g><path class="st1" d="M519.45,251.23c-1.34-.15-2.69-.34-4.07-.48.09.7-.05,1.81.38,1.97,1.22.45,2.71.53,4.06.71-.09-.7-.22-1.37-.37-2.2h0ZM535.57,298.75c-1.26.49-2.66.83-3.69,1.52-.38.22.17,1.28.26,1.98,1.26-.49,2.66-.83,3.69-1.52.38-.26-.17-1.31-.26-1.98h0ZM661.41,332.52c-.62-.98-1.06-2.08-1.94-2.88-.33-.3-1.68.13-2.54.2.62.98,1.06,2.08,1.94,2.88.29.3,1.68-.13,2.54-.2h0ZM721.97,335.6c-.62-.98-1.06-2.08-1.94-2.88-.33-.3-1.68.13-2.54.2.62.98,1.1,2.08,1.94,2.88.29.3,1.68-.13,2.54-.2h0ZM740.23,355.58h0c-1.06.12-1.91.22-2.81.29.62.98,1.1,2.08,1.94,2.88.29.3,1.68-.13,2.54-.2-.58-.99-1.12-1.98-1.66-2.94v-.03ZM621.99,476.56c1.34.15,2.69.34,4.07.48-.09-.7.05-1.81-.38-1.97-1.22-.45-2.67-.5-4.06-.71.09.7.22,1.37.37,2.2h0ZM764.04,347.74h0c-1.3-.16-2.69-.34-4.07-.48.13.7-.01,1.81.42,1.97,1.22.45,2.67.5,4.06.71-.13-.7-.26-1.37-.37-2.2h-.04ZM518.26,287.29h0c-4.46-.91-6.07-1.26-7.69-1.59.53,1.51.6,3.31,1.74,4.48.81.81,3.07.76,4.69,1.08.53-1.63,1.06-3.28,1.3-4.01l-.04.04ZM745.82,399.37c1.16-3.52,1.61-4.78,2.03-6.04-1.93.41-4.24.47-5.73,1.36-1.07.63-1.01,2.41-1.43,3.67,2.12.41,4.2.83,5.13,1.01h0ZM539.66,234.64h0c-.6-2.05-.94-4.38-2.15-6.36-.48-.8-3-.86-4.58-1.25,0,3.13-.02,6.24.02,9.37,1.6-.42,3.19-.87,6.71-1.79v.03ZM659.17,410.83h0c-1.76-3.71-2.41-6.79-3.37-6.84-4.67-.31-9.4.2-14.12.44,2.29,2.02,4.14,4.55,6.95,5.81,2.24.99,5.63.36,10.53.55v.03ZM595.97,482.41h0c2.91-.49,2.89-1.65,2.67-1.7-1.39-.18-2.82-.07-4.22-.05.16.92.36,1.81.48,2.74,1.37-.27,2.74-.54,1.07-.99-5.71-2.62-12.98-3.53-9.16-8.16,5.54-6.68,11.77-13.08,18.57-18.99,4.71-4.12,7.75,1.13,9.3,3.24,1.65,3.46,3.76,5.13,6.14,6.59.27.17,1.92-1.12,2.92-1.72-1.63-1.45-3.08-3.05-4.97-4.26-.68-.46-2.36,0-4.09-.61,5.43-8.19,2.14-17.88,15.41-22,3.45-1.08,5.09-5.67,7.6-8.65-4.86-.16-9.7-.59-14.52-.43-17.23.62-34.6,2.78-51.69,1.93-31.44-1.51-62.7.55-94.02.9-20.97.21-42,3.72-62.81,2.88-38.01-1.51-75.64,2.77-113.46,3.28-39.68.56-79.32,2.38-119.04,2.69-37.82.28-75.64,2.06-113.45,2.08-15.57.04-31.38-2-46.63-4.61-6.21-1.06-11.85-5.65-16.56-9.51-1.84-1.47-1.36-5.74-.01-8.05.67-1.18,5.65-1.35,8.57-1.13,6.01.46,11.97,1.51,17.95,2.33-2.12-7.13-8.26-8.26-16.67-8.08-1.94.02-4.68-5.15-5.98-8.22-2.07-4.84,3.94-2.77,6.26-3.95,10.16-5.1,21.46-9.43,29.96-15.95,8.79-6.8,18.15-11.07,30.04-12.14,64.5-5.76,129.02-11.43,193.49-17.12,1.88-.15,4.01-.93,5.52-.47,14.83,4.45,28.99-1.14,43.44-1.51,14.45-.4,28.93-.58,43.36-1.47,29.31-1.81,58.58-3.97,87.86-6,1.84-.15,3.72-.65,5.55-.54,31.88,1.74,63.42-2.67,95.09-3.76,1.6-.06,3.13-.73,4.65-1.11-.78-1.23-1.19-2.78-2.44-3.55-5.81-3.71-11.58-7.42-17.79-10.67-23.46-12.36-46.92-24.65-70.67-36.66-9.77-4.94-14.3-12.15-17.23-20.35-.9-2.45-2.62-6.19,4.35-4.06,5.64,1.72,11.48,3.1,17.15,4.78,6.53,1.94,12.89,4.12,19.45,5.95,1.03.27,2.72-.67,3.88-1.31.31-.19.04-1.62-.51-2-2.09-1.45-4.4-2.69-6.64-4.03-9.67-5.76-19.83-11.13-28.72-17.53-3.47-2.5-6.06-7.57-5.62-11.19.66-5.71,8.66-5.21,13.48-4.75,10.74.96,20.49,4.42,28.81,10.25,1.45.98,5.76-.52,8.77-.89-.48-1.8-.16-4.41-1.6-5.3-7.24-4.5-14.07-11.91-10.66-16.89,4-5.78,15.43-5.94,24.61-2.69,1.26.45,3.13-.09,4.68-.21-.73-1.2-1.28-2.55-2.21-3.67-2.25-2.73-7.34-5.95-6.6-7.91,2.74-7.26,8.98-1.16,13.29-.73,4.98.51,10.27,2.38,14.34,4.78,63.27,37.6,126.35,75.35,189.47,113.13,4.16,2.48,10.57,4.43,4.35,9.99-.7.64,1.45,4.8,2.66,4.93,5.61.56,10.19,1.81,12.19,6.37,4.69-1.73,10.22-2.75,13.93-5.37,5.53-3.86,11.3-5.26,16.97-2.06,1.7.96-.6,5.9-.29,8.94.5,5.1,1.52,10.15,2.51,15.21,1.13,5.86,3.23,11.54-8.72,12.39-2.91.2-8.05,7.1-7.44,7.67,10.6,9.43-2.59,13.52-6.59,19.59-1.66,2.49-4.75,4.77-5.04,7.32-1.13,10.07-7.41,15.55-20.49,16.26-1.56.09-3.32,1.81-4.35,3.12-4.18,5.37-8.44,10.75-12.05,16.37-9.77,15.12-30.49,22.32-42.24,35.95-12.28,14.25-33.81,21.91-44.04,37.65-.73,1.09-2.61,1.86-4.15,2.4-4.82,1.68-9.78,3-14.51,4.74-6.23,2.34-8.99,5.85-9.18,11.75-.07,2.3-8.17,3.88-10.94,6.78-12.15,12.76-19.18,16.84-40.94,22.41-.64.18-1.01,3.02-.26,4.06,1.42,2.02,6.75,3.96-.36,5.17-6.39,1.06-13.04,1.13-19.43,2.19-6.15,1-3.73-3.26-5.56-4.66-6.73-5.09-4.4-5.86,3.18-8.62,8.17-2.97,8.09-9.62,1.7-11.41-3.95-1.11-9.63,3.48-6.64-5.65,3.79-11.58,10.74-18.53,34.18-24.2,10.57-.71,10.53-2.94,10.07-2.96-5.16-.56-10.73-1.8-15.39-.75-3.69.84-5.83,4.73-2.56,8.28,1.2,1.26,2.51,2.48,3.79,3.71,4.61-2.98,9.19-5.93,4.13-8.31-17.27-3.8-9.98-8.1-7.15-8.9,6.53-1.88,7.01-5.21,8.98-9.44,6.05-12.92,7.51-13.17,25.95-17.57,3.85-.92,7-3.72,13.51-5.43l.02.13Z"></path></svg>