<svg xmlns="http://www.w3.org/2000/svg" id="Layer_1" viewBox="0 0 480 480"><path d="M9.15,332.66c37.54,57.66,94.96,96.75,161.7,110.07,66.75,13.32,134.8-.72,191.6-39.54,94.85-64.85,121.03-195.97,58.34-292.26-24.77-38.06-62.69-63.88-106.76-72.67-44.08-8.8-89,.48-126.51,26.08-63,43.06-80.38,130.1-38.74,194.05,16.62,25.52,42.05,42.82,71.62,48.73,29.56,5.9,59.68-.31,84.82-17.5,42.58-29.12,54.33-87.95,26.19-131.17-11.39-17.49-28.83-29.36-49.1-33.4h-.01c-20.28-4.04-40.92.21-58.14,11.99-29.53,20.17-37.68,60.97-18.15,90.94,16.07,24.7,51.46,31.77,75.78,15.13,21.17-14.45,27.01-43.7,13.01-65.18-4.29-6.54-13.03-8.4-19.59-4.14-6.55,4.26-8.42,13.03-4.14,19.59,5.66,8.69,3.29,20.52-5.26,26.36-11.66,7.95-28.39,4.61-36.09-7.21-11.18-17.17-6.51-40.55,10.4-52.11,10.9-7.44,23.89-10.14,36.64-7.6h.01c12.74,2.55,23.74,10.04,30.93,21.09,19.79,30.43,11.52,71.86-18.44,92.36-18.79,12.85-41.27,17.5-63.3,13.1-22.05-4.4-41.02-17.33-53.43-36.41-33.3-51.15-19.41-120.77,30.99-155.22,31.16-21.29,68.44-29.01,104.98-21.71,36.54,7.29,68,28.73,88.6,60.36,54.35,83.5,31.66,197.2-50.59,253.43-50.47,34.5-110.86,46.99-170.08,35.16-59.22-11.82-110.19-46.54-143.53-97.77-4.27-6.54-13.06-8.4-19.59-4.13-6.55,4.26-8.42,13.03-4.14,19.59Z"></path></svg>